<?xml version="1.0" encoding="utf-8"?>
<!-- Generator: Adobe Illustrator 26.0.2, SVG Export Plug-In . SVG Version: 6.00 Build 0)  -->
<svg version="1.1" id="Layer_1" xmlns="http://www.w3.org/2000/svg" xmlns:xlink="http://www.w3.org/1999/xlink" x="0px" y="0px"
	 viewBox="0 0 558.84 175.59" style="enable-background:new 0 0 558.84 175.59;" xml:space="preserve">
<style type="text/css">
	.st0{fill-rule:evenodd;clip-rule:evenodd;}
	.st1{fill-rule:evenodd;clip-rule:evenodd;fill:#009FE3;stroke:#009FE3;stroke-width:0.8526;stroke-miterlimit:22.9256;}
</style>
<g>
	<g>
		<path class="st0" d="M166.63,97.54c2.66,3.21,5.42,6.39,8.28,9.49c2.86,3.12,5.86,6.24,9.01,9.36c-2.62,2.11-5.35,4.39-8.19,6.85
			c-2.84,2.48-5.88,5.21-9.09,8.22c-3.35-3.14-6.45-5.93-9.29-8.37c-2.84-2.44-5.55-4.68-8.12-6.7c3.1-3.08,6.1-6.19,9.01-9.36
			C161.1,103.89,163.92,100.73,166.63,97.54L166.63,97.54z M168.1,77.66c5.81,9.47,11.54,19,17.2,28.6
			c5.66,9.58,11.27,19.33,16.87,29.24c4.05-3.3,7.93-6.28,11.63-8.96c3.7-2.68,7.26-5.1,10.7-7.25
			c-8.9-13.2-17.59-26.56-26.09-40.04c-8.5-13.51-16.78-27.15-24.88-40.97c-3.43,2.57-6.96,5.14-10.57,7.69
			c-3.61,2.55-7.26,5.03-10.97,7.43l8.46,12.17c-5.26,8.5-10.94,17.49-17.11,26.97c-6.14,9.47-13.12,20.03-20.96,31.65l7.93,11.31
			c6.21-10.35,12.44-20.32,18.72-29.94C155.29,95.92,161.65,86.63,168.1,77.66L168.1,77.66z M256.89,42.12
			c-0.2,5.89-0.37,11.51-0.48,16.89c-0.11,5.38-0.15,10.63-0.15,15.75v7.01h33.54c0-7.69-0.04-14.76-0.13-21.24
			c-0.09-6.48-0.22-12.61-0.38-18.41c3,0.18,5.26,0.29,6.76,0.35c1.5,0.07,2.91,0.11,4.21,0.11c1.37,0,2.82-0.02,4.34-0.09
			c1.54-0.07,3.63-0.22,6.3-0.44l4.38,4.26c-0.31,6.26-0.53,12.72-0.68,19.4c-0.15,6.68-0.22,13.69-0.22,21
			c0,7.34,0.07,14.45,0.22,21.31c0.15,6.85,0.37,13.62,0.68,20.28l-4.12,3.8c-1.81-0.13-3.63-0.24-5.48-0.31
			c-1.85-0.07-3.7-0.09-5.55-0.09c-1.85,0-3.68,0.02-5.48,0.09c-1.81,0.07-3.59,0.18-5.35,0.31c0.15-6.26,0.29-12.65,0.38-19.18
			c0.09-6.52,0.13-13.31,0.13-20.34h-33.54v6.57c0,4.72,0.04,9.75,0.15,15.11c0.11,5.38,0.29,11.31,0.48,17.84
			c-1.76-0.13-3.54-0.24-5.35-0.31c-1.81-0.07-3.63-0.09-5.48-0.09c-1.81,0-3.63,0.02-5.46,0.09c-1.83,0.07-3.63,0.18-5.44,0.31
			l-4.27-3.8c0.35-7.6,0.59-14.83,0.77-21.68c0.18-6.88,0.26-13.51,0.26-19.9c0-6.39-0.09-12.92-0.26-19.62
			c-0.18-6.7-0.42-13.62-0.77-20.78l4.51-4.26c2.66,0.22,4.76,0.37,6.27,0.44c1.5,0.07,2.91,0.09,4.25,0.09
			c1.3,0,2.69-0.04,4.21-0.11C251.62,42.41,253.89,42.3,256.89,42.12L256.89,42.12z M321.51,130.1l-2.64-7.09
			c1.04,0.39,2.07,0.68,3.13,0.88c1.06,0.2,2.11,0.29,3.19,0.29c5.86,0,10.19-1.89,13.04-5.67c2.84-3.78,4.25-9.56,4.25-17.38
			c0-3.21-0.04-6.9-0.13-11.07c-0.09-4.15-0.13-6.7-0.13-7.64c0-13.18,2.8-23.33,8.39-30.44c5.59-7.12,13.54-10.68,23.87-10.68
			c2.88,0,5.66,0.33,8.32,0.97c2.66,0.64,5.35,1.63,8.06,2.97l2.64,6.61c-1.39-0.26-2.71-0.46-3.96-0.62
			c-1.28-0.15-2.47-0.22-3.59-0.22c-5.84,0-10.04,2.15-12.57,6.44c-2.53,4.28-3.81,11.47-3.81,21.57c0,0.46,0.02,2.06,0.07,4.81
			c0.04,2.75,0.07,5.27,0.07,7.53c0,7.47-0.51,13.33-1.5,17.6c-0.97,4.28-2.6,7.91-4.82,10.92c-3.24,4.24-7.11,7.45-11.65,9.62
			c-4.54,2.17-9.69,3.25-15.43,3.25c-2.97,0-5.66-0.22-8.06-0.64C325.81,131.66,323.58,131,321.51,130.1L321.51,130.1z
			 M457.22,41.95l-4.95,10.28c-2.93-0.15-5.97-0.29-9.16-0.37c-3.17-0.09-6.61-0.13-10.26-0.13c-2.75,0-4.8,0-6.14,0.02
			c-1.37,0.02-2.62,0.07-3.79,0.11l-0.64,31.33c3.02-2.04,6.1-4.24,9.29-6.59c3.17-2.33,6.52-4.88,10-7.62
			c2.4,3.18,4.87,6.24,7.38,9.16c2.51,2.94,5.11,5.78,7.77,8.48c-3.52,2.53-6.8,4.96-9.84,7.34c-3.02,2.35-5.86,4.72-8.48,7.07
			c-2.44-2.79-5.02-5.56-7.71-8.33c-2.69-2.77-5.48-5.54-8.41-8.28l0.64,37.65c0.95,0,2.36,0.02,4.21,0.07
			c1.85,0.04,3.21,0.07,4.12,0.07c3.61,0,7.38-0.07,11.3-0.22c3.9-0.15,8.21-0.37,12.88-0.68l5.68,10.94
			c-4.69-0.22-9.64-0.37-14.86-0.48c-5.22-0.11-11.01-0.15-17.37-0.15c-5.42,0-10.44,0.04-15.04,0.13c-4.6,0.09-8.96,0.2-13.08,0.37
			l-4.21-3.8c0.35-7.58,0.59-14.8,0.77-21.68c0.18-6.85,0.26-13.49,0.26-19.88c0-6.39-0.09-12.94-0.26-19.64
			c-0.18-6.68-0.42-13.62-0.77-20.78l4.51-4.37c5.28,0.22,10.22,0.37,14.77,0.48c4.56,0.11,8.94,0.15,13.15,0.15
			c4.32,0,8.78-0.04,13.45-0.15C447.09,42.32,452.02,42.17,457.22,41.95L457.22,41.95z M488.7,74.37v53.66l-12.97,6.44V60
			l-5.28-5.78c3.57-2.46,7.07-4.92,10.5-7.45c3.46-2.5,6.87-5.07,10.26-7.75c8.74,11.25,17.24,21.75,25.5,31.5
			c8.26,9.78,16.05,18.56,23.41,26.36V45.92l12.77-6.5v72.4l5.95,6.44c-3.39,2.83-6.63,5.67-9.69,8.52
			c-3.04,2.86-5.97,5.76-8.76,8.72c-8.87-10.72-17.59-21.18-26.2-31.35C505.59,93.98,497.09,84.06,488.7,74.37z"/>
		<g>
			<polygon class="st0" points="68.64,0.59 109.99,26.67 41.36,134.98 0,108.9 			"/>
			<polygon class="st1" points="107.38,0.59 148.73,26.67 80.1,134.98 38.74,108.9 			"/>
		</g>
	</g>
	<g>
		<path d="M148.46,163.47h-8.66l-1.53,4.85h-5.52l8.29-23.58h6.18l8.29,23.58h-5.52L148.46,163.47z M144.13,149.84l-2.96,9.34h5.91
			L144.13,149.84z"/>
		<path d="M156.93,144.75h5.12v8.85h10.62v-8.85h5.12v23.58h-5.12v-10.24h-10.62v10.24h-5.12V144.75z"/>
		<path d="M194.13,151.59c-0.35-3.07-2.67-3.4-4.73-3.4c-2.11,0-3.49,1.19-3.49,2.78c0,1.28,0.82,1.95,2.16,2.21l6.42,1.29
			c3.43,0.69,6.05,2.28,6.05,6.6c0,4.36-2.38,7.92-9.79,7.92c-4.57,0-10.62-0.72-10.62-8.09h5.76c0.08,3.27,2.64,3.8,4.86,3.8
			c2.43,0,4.04-0.86,4.04-2.94c0-1.82-1.16-2.31-3.2-2.71l-4.67-0.89c-3.27-0.59-6.44-1.85-6.44-6.67c0-5.28,3.43-7.39,9.35-7.39
			c3.88,0,9.64,0.79,9.98,7.5H194.13z"/>
		<path d="M202.9,144.75h17.61v4.49h-12.49v4.89h11.86v4.29h-11.86v5.42h12.6v4.49H202.9V144.75z"/>
		<path d="M239.33,144.75h4.96v23.58h-5.57l-10.27-16.45h-0.05v16.45h-4.96v-23.58h5.94l9.9,16.45h0.05V144.75z"/>
		<path d="M257.66,144.75h11.75c6.47,0,9.27,4.69,9.27,11.79s-2.91,11.79-8.82,11.79h-12.2V144.75z M262.78,163.84h5.7
			c3.41,0,4.91-2.51,4.91-7.53c0-4.36-1.48-7.06-5.39-7.06h-5.23V163.84z"/>
		<path d="M281.6,144.75h17.61v4.49h-12.49v4.89h11.86v4.29h-11.86v5.42h12.6v4.49H281.6V144.75z"/>
		<path d="M320.86,144.75h7.52v23.58h-4.96v-18.89h-0.06l-5.97,18.89h-4.28l-5.97-18.89h-0.05v18.89h-4.96v-23.58h7.52l5.6,16.98
			L320.86,144.75z"/>
		<path d="M331.98,144.75h5.12v23.58h-5.12V144.75z M332.21,138.31h4.65v3.9h-4.65V138.31z"/>
		<path d="M340.69,144.75h13.7c5.2,0,6.1,4,6.1,6.41c0,2.91-0.93,4.72-3.06,5.68v0.07c2.21,0.43,2.59,3.99,2.59,6.3
			c0,1.16,0.05,3.96,0.98,5.12h-5.6c-0.47-1.02-0.5-2.08-0.5-4.53c0-3.3-1.14-4.13-2.72-4.13h-6.36v8.65h-5.12V144.75z
			 M345.81,155.19h6.79c1.14,0,2.45-0.8,2.45-3.01c0-2.34-1.48-2.94-2.72-2.94h-6.52V155.19z"/>
		<path d="M388.87,153.67c-0.47-3.4-2.72-5.09-5.39-5.09c-4.86,0-5.89,4.76-5.89,7.96c0,3.2,1.03,7.96,5.89,7.96
			c2.45,0,4.89-1.52,5.39-5.22h5.57c-0.47,5.08-3.12,8.09-6.97,9.15c-1.27,0.36-2.64,0.52-4.09,0.56l-0.45,0.89
			c0.4-0.1,0.6-0.13,1.16-0.13c1.27,0,2.51,0.83,2.51,2.64c0,2.58-2.25,3.2-3.75,3.2c-1.4,0-2.53-0.3-3.38-0.59l0.45-1.79
			c0.82,0.3,1.48,0.4,2.14,0.4c0.77,0,1.27-0.4,1.27-1.19c0-0.69-0.32-1.02-0.93-1.02c-0.42,0-0.85,0.13-1.24,0.3l-0.52-0.6
			l1.11-2.18c-1.11-0.1-2.14-0.33-3.08-0.63c-4.09-1.45-6.5-5.22-6.5-11.75c0-8.75,4.28-12.45,11.14-12.45
			c4.57,0,10.32,1.45,11.09,9.58H388.87z"/>
		<path d="M396.9,144.75h17.61v4.49h-12.49v4.89h11.86v4.29h-11.86v5.42h12.6v4.49H396.9V144.75z"/>
		<path d="M417.44,144.75h5.12v18.89h11.49v4.69h-16.61V144.75z"/>
		<path d="M436.5,144.75h5.12v23.58h-5.12V144.75z M436.74,138.31h4.65v3.9h-4.65V138.31z"/>
		<path d="M459.1,144.75h6.89l-8.66,9.48l9.32,14.1h-6.92l-6.42-10.2l-2.98,3.2v7h-5.12v-23.58h5.12v10.14L459.1,144.75z"/>
	</g>
</g>
</svg>
